<svg xmlns="http://www.w3.org/2000/svg" viewBox="0 0 24 24" fill="none">
  <path d="M12 2L15.5 4V8L12 10L8.5 8V4L12 2Z" fill="currentColor"/>
  <path d="M19 5.5L22.5 7.5V11.5L19 13.5L15.5 11.5V7.5L19 5.5Z" fill="currentColor" opacity="0.85"/>
  <path d="M5 5.5L8.5 7.5V11.5L5 13.5L1.5 11.5V7.5L5 5.5Z" fill="currentColor" opacity="0.85"/>
  <path d="M12 10L15.5 12V16L12 18L8.5 16V12L12 10Z" fill="currentColor" opacity="0.7"/>
  <path d="M19 13.5L22.5 15.5V19.5L19 21.5L15.5 19.5V15.5L19 13.5Z" fill="currentColor" opacity="0.6"/>
  <path d="M5 13.5L8.5 15.5V19.5L5 21.5L1.5 19.5V15.5L5 13.5Z" fill="currentColor" opacity="0.6"/>
</svg>
